<?xml version="1.0" encoding="utf-8"?>
<!-- Generator: Adobe Illustrator 24.0.0, SVG Export Plug-In . SVG Version: 6.00 Build 0)  -->
<svg version="1.1" xmlns="http://www.w3.org/2000/svg" xmlns:xlink="http://www.w3.org/1999/xlink" x="0px" y="0px"
	 viewBox="0 0 187.2 260.4" style="enable-background:new 0 0 187.2 260.4;" xml:space="preserve">
<style type="text/css">
	.st0{fill:#FFE2CF;}
	.st1{fill:#FFFFFF;}
	.st2{fill:#5DCEC1;}
	.st3{fill:#D5E1ED;}
	.st4{fill:#B8DDFF;}
	.st5{opacity:0.5;}
	.st6{fill:#8FA7D7;}
	.st7{fill:#38A595;}
	.st8{opacity:0.5;fill:#8FA7D7;}
	.st9{fill:#FFCCA9;}
	.st10{opacity:0.1;fill:#8FA7D7;}
	.st11{fill:#AE376D;}
	.st12{fill:#A1B5BF;}
	.st13{fill:#F0BA92;}
	.st14{opacity:0.6;}
	.st15{fill:#D88D64;}
	.st16{fill:#D3976E;}
	.st17{opacity:0.1;}
	.st18{fill:#0E3368;}
	.st19{fill:#383F47;}
	.st20{fill:#1A2026;}
	.st21{fill:#BCBCBC;}
	.st22{fill:#444444;}
	.st23{opacity:0.3;}
	.st24{fill:#635B53;}
	.st25{opacity:0.4;}
	.st26{fill:#D3D3D3;}
	.st27{fill:#A8A6A0;}
	.st28{fill:#BABABA;}
	.st29{fill:#AAA9A2;}
	.st30{fill:#2A445D;}
	.st31{fill:#1F384C;}
	.st32{clip-path:url(#SVGID_2_);fill:#FFFFFF;}
	.st33{clip-path:url(#SVGID_4_);fill:#FFFFFF;}
	.st34{fill:#210601;}
	.st35{fill:#302420;}
</style>
<g id="background">
</g>
<g id="background_2">
	<g id="Layer_22">
	</g>
	<g id="Layer_18">
		<g>
			<polygon class="st0" points="6,78.4 0,101.2 0.3,103.9 			"/>
		</g>
	</g>
	<g id="Layer_23">
	</g>
	<g id="Layer_20">
	</g>
	<g id="_x2B_">
	</g>
</g>
<g id="phone">
</g>
<g id="chat">
	<path class="st1" d="M187.2,23.1c0,2.2-1.8,4.1-4.1,4.1c-2.2,0-4.1-1.8-4.1-4.1c0-2.2,1.8-4.1,4.1-4.1
		C185.4,19.1,187.2,20.9,187.2,23.1z"/>
</g>
<g id="accent_1_">
	<g id="Layer_13">
		<path class="st2" d="M79.3,83.6c0.4-0.6,15.9,7.2,33.4-3c17.5-10.2,7.3,97.2,7.3,97.2l-1.4,55.7l-2,26.9H73.1l-8.9-84.7
			C64.1,175.7,73.2,93.2,79.3,83.6z"/>
		<path class="st1" d="M157.9,99.4c-7.1-6.1-39.8-18.5-39.8-18.5l-5.3,9.5c0,0,1.7,118.3,0.8,142.7l0,27.3h39.9l0.2-61.6
			c11.5-2.9,20.4-7.8,25.3-13.1c5.5-6.1,6.9-9.5,6.9-17.5C185.8,160.1,165,105.6,157.9,99.4z"/>
		<path class="st1" d="M75.7,187.7c0.4-0.6,0.6-0.9,0.6-0.9V82c0,0-32.7,12.4-39.8,18.5c-7.1,6.1-27.8,62.6-28,70.7
			c-0.8,32,27,72.3,27,72.3s0.9-0.4,2.6-1.6c-0.5,7.4-1.5,18.6-1.5,18.6H80c0,0,0.1-33.1,0-34.6C79.9,224.9,77.6,204.3,75.7,187.7z"
			/>
		<g>
			<g>
				<path class="st3" d="M145.3,159.2l-7.3,4.3c-0.2,0.1-0.4,0.1-0.5,0l-7.7-4.3c-0.2-0.1-0.3-0.3-0.3-0.5v-16.2
					c0-0.3,0.2-0.5,0.5-0.5h15c0.3,0,0.5,0.2,0.5,0.5v16.2C145.6,158.9,145.4,159.1,145.3,159.2z"/>
			</g>
		</g>
		<g>
			<g>
				<path class="st4" d="M145.3,159.2l-7.3,4.3c-0.2,0.1-0.4,0.1-0.5,0l-7.7-4.3c-0.2-0.1-0.3-0.3-0.3-0.5v-12.9
					c0-0.3,0.2-0.5,0.5-0.5h15c0.3,0,0.5,0.2,0.5,0.5v12.9C145.6,158.9,145.4,159.1,145.3,159.2z"/>
			</g>
		</g>
		<g class="st5">
			<g>
				<path class="st6" d="M113.5,234.2V183V71.8c0,0,1.4,2.5,6.4,7.6c6.3,6.4,11.7,16,11.7,16l-11.3-2.2l14.7,14.8l-11.1,65.2
					l-7.8,1.2l5,15.8L113.5,234.2z"/>
			</g>
		</g>
		<g class="st5">
			<path class="st6" d="M71.3,79.3c-6.3,6.4-11.7,16-11.7,16L71,93.1L56.2,108L80,230.9L77.7,71.7C77.7,71.7,76.3,74.2,71.3,79.3z"
				/>
		</g>
		<g>
			<g>
				<path class="st1" d="M113.5,227.4L113.5,227.4l-2.5-156.8c0,0,2.6,1.1,7.6,6.2c6.3,6.4,10.5,17.4,10.5,17.4L117.8,92l14.7,14.8
					L122,173.9l-5.4,1.2l4,8L113.5,227.4z"/>
			</g>
		</g>
		<g>
			<g>
				<path class="st1" d="M80,225.8V70.6c0,0-2.6,1.1-7.6,6.2c-6.3,6.4-10.5,17.4-10.5,17.4L73.3,92l-14.7,14.8L80,225.8z"/>
			</g>
		</g>
		<path class="st7" d="M97.7,238.5c-9.9,0-17.5-1.5-17.6-1.5l0-0.9c0.2,0,17.4,3.4,33.5,0v0.9C108.1,238.1,102.6,238.5,97.7,238.5z"
			/>
		<g>
			<path class="st7" d="M95.5,98c-8.9,0-15.4-3.1-15.5-3.2v-1.1c0.2,0.1,16,7.6,31.4-0.7l0,1.1C105.8,97.1,100.4,98,95.5,98z"/>
		</g>
		<path class="st8" d="M22.9,171.2c0,0,11.8,2.3,17.9,8.4C40.9,179.6,25.6,172,22.9,171.2z"/>
		<path class="st9" d="M54.2,223.8l2.5,3c0,0-5,12.2-10.5,18.6l-4.5-6.2C41.7,239.2,48.6,234,54.2,223.8z"/>
		<path class="st8" d="M36.9,171.2c0.3,0.5,4.3,4.3,5.6,7.9l-6.2-7.1L36.9,171.2z"/>
		<path class="st8" d="M49.5,130.2c0-0.6-3.6,47-5.2,53.2l11.9,36.5c0,0-6.3,14.3-18.1,21.9c0,0,7.6-1.1,19.5-17.6
			c0,0-6,17-14.4,24.2c0,0,13.2-7.8,17.1-31.6l-12.5-33.4C47.8,183.4,50,140.8,49.5,130.2z"/>
		<polygon class="st8" points="153.7,198.8 147.9,200.5 148.8,205.6 153.7,203.7 		"/>
		<path class="st8" d="M152.3,163.1L152.3,163.1l-4.4-35.8l1.4,36.9c-14.7,5.6-30.5,12.2-30.5,12.2s8.4-2.2,18.7-4.9
			c10.3-2.7,29.5-13.5,29.5-13.5C163.1,159.2,157.8,161.1,152.3,163.1z"/>
	</g>
	<g id="Layer_26">
		<path class="st10" d="M172.6,128.2c0,0,9.2,24.9,9.3,41c0,6-3.4,11-5.9,12.8c-24,17.5-53.7,18.1-53.7,18.1s-0.2,4-0.8,4.8
			c0,0,52.5-3.5,62.5-26.2c0,0,2.3-3.6,1.8-9.3C184.8,158.6,178.9,143.5,172.6,128.2z"/>
		<path class="st10" d="M26.4,119.1c0.4-1-15,38.1-14.8,52.1c0.3,29.5,22.1,66.7,26.5,70.7l-2.6,1.6c0,0-28.9-42.9-27-72.3
			C8.9,165.4,9.6,162.8,26.4,119.1z"/>
	</g>
	<g id="Layer_21">
		<path class="st11" d="M121.7,204.6c1.7-17.3-3.3-27.9-2.7-28.2c5.6-2.5,19.6-8,30.8-12.4l0.5-25.5l-57.4-2.3L91.6,221l57.2-2.3
			l0.3-18.5C135,203.5,121.7,204.6,121.7,204.6z"/>
		<polygon class="st12" points="131,137.8 131,136.8 115.4,135.9 115.4,137.2 		"/>
		<path class="st12" d="M117.4,138.9c0,0.2-0.1,0.3-0.3,0.3c-0.2,0-0.3-0.1-0.3-0.3c0-0.2,0.1-0.3,0.3-0.3
			C117.3,138.5,117.4,138.7,117.4,138.9z"/>
		<path class="st12" d="M129.7,139.4c0,0.1-0.1,0.2-0.2,0.2c-0.1,0-0.2-0.1-0.2-0.2c0-0.1,0.1-0.2,0.2-0.2
			C129.7,139.2,129.7,139.3,129.7,139.4z"/>
	</g>
	<g id="Layer_6">
		<g>
			<g>
				<path class="st13" d="M120.6,50.1c-1.6,5.9-4.5,10.4-5.8,10.1c0,0,0.9-3.8,2.1-9.8c1.4-7,1.6-11.9,4.4-11.6
					C122.6,39,122.3,44.2,120.6,50.1z"/>
			</g>
		</g>
		<g class="st14">
			<g>
				<path class="st15" d="M118.4,47.7c-1.5,5.9-2.3,12.8-3.6,12.5c0,0,1.2-5.4,2.4-11.4c1.4-7,1.2-9.4,4.1-9.1
					C121.4,39.7,120.3,40.5,118.4,47.7z"/>
			</g>
		</g>
		<g>
			<g>
				<path class="st13" d="M70.7,50.1c1.6,5.9,4.3,10.4,5.6,10.1c0,0-1.3-4.9-2.1-10c-1.1-7-1.3-11.7-4.2-11.4
					C68.7,39,69,44.2,70.7,50.1z"/>
			</g>
		</g>
		<g class="st14">
			<g>
				<path class="st15" d="M72,47.1c1.5,5.9,3,13.5,4.3,13.2c0,0-1.3-6.1-2.5-12.1c-1.4-7-1.1-8.6-4-8.3C69.8,39.8,70.2,39.8,72,47.1
					z"/>
			</g>
		</g>
		<g>
			<g>
				<path class="st13" d="M111.3,84.4c0,0-2.2,5.7-15.8,5.7S80,84.7,80,84.7V67.4h31.1L111.3,84.4z"/>
			</g>
		</g>
		<g class="st14">
			<g>
				<path class="st15" d="M111.1,71.8c-2.8,5.9-13.8,10.5-15.6,10.5c-1.8,0-11.1-3.5-15.5-10.4v-9h31.1L111.1,71.8z"/>
			</g>
		</g>
		<g>
			<g>
				<path class="st9" d="M114.9,60.2c-5.2,17-19.3,17.3-19.3,17.3s-14.9,0-19.4-17.7c-2.9-11.7-10-29.5-1.5-42.7
					c4.8-7.5,39.8-10.5,43.9,0C122.6,27.5,117.9,50.2,114.9,60.2z"/>
			</g>
		</g>
		<g>
			<path class="st1" d="M103.1,59.6c0.6,0.5-1.2,6.6-7.6,6.7c-5.4,0.1-8.1-5.5-7.7-6.4c0.6-1,2.8-0.3,7.4-0.3
				C100,59.6,102.5,59,103.1,59.6z"/>
			<path class="st16" d="M95.5,66.6c-3.5,0-6-2.3-7.2-4.4c-0.5-0.8-0.9-1.9-0.6-2.4c0.5-0.8,1.7-0.8,3.8-0.6c1,0.1,2.4,0.1,3.9,0.1
				c1.9,0,3.4-0.1,4.7-0.2c1.9-0.1,2.9-0.2,3.4,0.2l0,0c0.4,0.4,0.1,1.5-0.1,1.9C103,62.1,101.1,66.5,95.5,66.6
				C95.5,66.6,95.5,66.6,95.5,66.6z M89.6,59.7c-0.8,0-1.2,0.1-1.4,0.4c-0.1,0.1,0.1,1,0.8,2.1c0.6,0.9,2.7,3.7,6.5,3.7
				c0,0,0.1,0,0.1,0c3.7,0,5.6-2.2,6.4-3.5c0.8-1.3,1-2.4,0.9-2.7c-0.3-0.2-1.5-0.1-2.9-0.1c-1.2,0.1-2.8,0.2-4.7,0.2
				c-1.6,0-2.9-0.1-4-0.1C90.7,59.7,90.1,59.7,89.6,59.7z"/>
		</g>
		<g>
			<path class="st15" d="M95.6,54.4c-0.8-0.5-1.9-1.7-1.2-3.7c0.6-1.7,0.7-5,0.7-5.1l0.6,0c0,0.1-0.1,3.4-0.7,5.3
				c-0.5,1.5,0.3,2.5,1,3L95.6,54.4z"/>
		</g>
		<path class="st9" d="M120.1,181.2l-5.9,0.9c-7.5,0.7-10.2-5.1-16.9-4.3c-6.6,0.9-5.8,3.5-5.8,3.5c-4.4,0.1-3.2,6.2-3.2,6.2
			c-2.1,3.1,0.1,6.6,0.1,6.6c-1.5,2.1,0.5,5.4,0.5,5.4c0.6,3.5,4.8,6.4,9.4,6.9c0.2,0,0.3,0,0.5,0c0.2,0,0.3,0,0.5,0
			c0.2,0,0.3,0,0.5,0c0.2,0,0.5,0,0.7,0c0,0,0,0,0,0l0,0c0,0,0,0,0,0c0.2,0,0.4,0,0.6-0.1c5.5-0.8,20.8-6.9,20.8-6.9
			C122.2,187.6,120.1,181.2,120.1,181.2z"/>
		<path class="st15" d="M91.6,181.3c0,0,3.8,0.7,5.8,0.9c2.1,0.1,6.8,0.9,7.9,1.2c0,0-6.2-0.5-8-0.6C96,182.7,91,181.4,91.6,181.3z"
			/>
		<path class="st15" d="M92.8,189.2c0,0-2.8-1.1-3.6-2.2c-0.8-1.1-0.8-2.4-0.9-2.3c-0.2,1.1,0.1,2.9,0.1,2.9L92.8,189.2z"/>
		<path class="st15" d="M92.9,195.8c0,0-2.6-1.2-3.7-2c-1.2-1-1.6-2.5-1.6-2.4c0.1,1.5,0.9,2.7,0.9,2.7L92.9,195.8z"/>
		<path class="st15" d="M93.4,201.2c0,0-2.6-1.2-3.7-2c-1.2-1-1.8-2.6-1.7-2.5c0.1,1.5,1.1,2.9,1.1,2.9L93.4,201.2z"/>
		<path class="st15" d="M92.1,179.8c0,0-0.7,1.5,0.5,1.8l0.2,0.3l-1.3-0.5C91.6,181.3,91.4,180.4,92.1,179.8z"/>
	</g>
	<g class="st17">
		<g>
			<g>
				<path class="st18" d="M71.1,109.3l0.3-17L70,92.6l-0.3,16.8c-7.7,1.3-9.2,15-9.5,32.4c0,0,0,0,0,0l0,1c0,3.6,1.9,4.4,4.3,4.8
					c0.9,0.1,1.8,0.2,2.7,0.2c0.2,0.5,0.7,0.9,1.3,0.9c0.8,0,1.5-0.6,1.5-1.5V146c0-0.8-0.6-1.5-1.5-1.5c-0.7,0-1.3,0.5-1.4,1.3
					c-1.9-0.1-4.3-0.5-5.1-1.9c-0.8-1.4-0.3-4.3-0.2-6.3c0.5-15.2,2.2-26.8,9.2-26.8c7.1,0,10.4,11.5,10.9,26.7
					c0.1,1.9,0.4,4.7-0.3,6.1c-0.6,1.3-2.4,1.9-4.1,2.1c-0.2-0.7-0.8-1.1-1.6-1.1c-0.8,0.1-1.4,0.8-1.3,1.6l0.1,1.2
					c0.1,0.8,0.8,1.4,1.6,1.3c0.6-0.1,1.1-0.5,1.2-1.1c2.8-0.4,5.9-1.6,5.8-5.2l0-1.4c0,0,0,0,0-0.1C83,123.1,79.6,109.5,71.1,109.3
					z"/>
			</g>
		</g>
		<g>
			<g>
				<path class="st18" d="M140,123c-1.4-33.6-17-41.3-17.7-41.6c0,0,0.9,0.7,4.8,6.1c4.1,5.6,10.4,15.8,11.3,35.5
					c-3.4,0.5-6,3.4-6,6.9c0,3.8,3.1,6.9,6.9,6.9s6.9-3.1,6.9-6.9C146.3,126.3,143.5,123.4,140,123z"/>
			</g>
		</g>
		<polygon class="st18" points="149,200.2 148.7,218.8 96.9,220.8 96.9,220.8 96.8,227.3 152.3,225 152.3,199.4 		"/>
	</g>
	<g id="Layer_12">
		<g>
			<g>
				<path class="st19" d="M81.4,139.2c-0.3-17.9-3-31.5-11.6-31.5c-8.7,0-11.3,14-11.6,32.4c0,0,0,0,0,0l0,1c0,3.6,1.9,4.4,4.3,4.8
					c0.9,0.1,1.8,0.2,2.7,0.2c0.2,0.5,0.7,0.9,1.3,0.9c0.8,0,1.5-0.6,1.5-1.5v-1.2c0-0.8-0.6-1.5-1.5-1.5c-0.7,0-1.3,0.5-1.4,1.3
					c-1.9-0.1-4.3-0.5-5.1-1.9c-0.8-1.4-0.3-4.3-0.2-6.3c0.5-15.2,3-26.7,10.1-26.7c7.1,0,9.5,11.4,10,26.6c0.1,1.9,0.4,4.7-0.3,6.1
					c-0.6,1.3-2.4,1.9-4.1,2.1c-0.2-0.7-0.8-1.1-1.6-1.1c-0.8,0.1-1.4,0.8-1.3,1.6l0.1,1.2c0.1,0.8,0.8,1.4,1.6,1.3
					c0.6-0.1,1.1-0.5,1.2-1.1c2.8-0.4,5.9-1.6,5.8-5.2V139.2C81.4,139.2,81.4,139.2,81.4,139.2z"/>
			</g>
		</g>
		<g>
			<g>
				<polygon class="st19" points="70,108.4 68.6,108.4 68.6,92.9 70,92.6 				"/>
			</g>
		</g>
		<g>
			<g>
				<path class="st19" d="M134.8,119.1c-0.7-20.1-7.2-30.5-11.3-36.2c-3.9-5.4-4.8-6.1-4.8-6.1c0.7,0.3,16.5,8,17.7,42.3
					L134.8,119.1z"/>
			</g>
		</g>
		<g>
			<g>
				<path class="st20" d="M135.7,119.5c-1.1-20.9-6.1-30.1-10.2-35.8c-3.9-5.4-6.8-6.9-6.8-6.9c0.7,0.3,16.5,8.7,17.8,42.9
					L135.7,119.5z"/>
			</g>
		</g>
		<g>
			<g>
				<path class="st21" d="M142.6,125.3c0,3.8-3.1,6.9-6.9,6.9s-6.9-3.1-6.9-6.9c0-3.8,3.1-6.9,6.9-6.9S142.6,121.4,142.6,125.3z"/>
			</g>
			<g>
				<path class="st22" d="M135.7,132.4c-3.9,0-7.1-3.2-7.1-7.1c0-3.9,3.2-7.1,7.1-7.1c3.9,0,7.1,3.2,7.1,7.1
					C142.9,129.2,139.7,132.4,135.7,132.4z M135.7,118.5c-3.7,0-6.7,3-6.7,6.7c0,3.7,3,6.7,6.7,6.7s6.7-3,6.7-6.7
					C142.4,121.5,139.4,118.5,135.7,118.5z"/>
			</g>
		</g>
		<g class="st23">
			<g>
				<path class="st1" d="M139.2,131.5l-1.8-3.7l1.2-3.4l3.8-1.6C142.5,122.8,144.7,127.7,139.2,131.5L139.2,131.5z"/>
			</g>
		</g>
		<g>
			<g>
				<path class="st24" d="M138.8,125.8c0,1.8-1.4,3.3-3.1,3.3c-1.7,0-3.1-1.5-3.1-3.3s1.4-3.3,3.1-3.3
					C137.4,122.5,138.8,124,138.8,125.8z"/>
			</g>
		</g>
		<g class="st25">
			<g>
				<path class="st1" d="M134.6,118.1l0.4,4.2l-2.3,2.8l-4.2,0.2C128.5,125.3,128.1,119.7,134.6,118.1L134.6,118.1z"/>
			</g>
		</g>
		<g>
			<g>
				<path class="st26" d="M138.5,125.3c0,1.5-1.2,2.8-2.8,2.8s-2.8-1.2-2.8-2.8s1.2-2.8,2.8-2.8S138.5,123.7,138.5,125.3z"/>
			</g>
			<g>
				<path class="st27" d="M135.7,128.2c-1.6,0-3-1.3-3-3c0-1.6,1.3-3,3-3c1.6,0,3,1.3,3,3C138.7,126.9,137.4,128.2,135.7,128.2z
					 M135.7,122.7c-1.4,0-2.6,1.2-2.6,2.6c0,1.4,1.2,2.6,2.6,2.6s2.6-1.2,2.6-2.6C138.3,123.8,137.1,122.7,135.7,122.7z"/>
			</g>
		</g>
		<g>
			<g>
				<path class="st28" d="M136.8,125.6c0,0.6-0.5,1.1-1.1,1.1c-0.6,0-1.1-0.5-1.1-1.1c0-0.6,0.5-1.1,1.1-1.1
					C136.3,124.5,136.8,125,136.8,125.6z"/>
			</g>
		</g>
		<g>
			<g>
				<circle class="st1" cx="135.7" cy="125.3" r="1.1"/>
			</g>
		</g>
		<g>
			<g>
				<path class="st29" d="M66.4,146.2h-0.3c-0.2,0-0.4-0.2-0.4-0.4v-1.9c0-0.2,0.2-0.4,0.4-0.4h0.3c0.2,0,0.4,0.2,0.4,0.4v1.9
					C66.8,146,66.6,146.2,66.4,146.2z"/>
			</g>
		</g>
		<g>
			<g>
				<path class="st29" d="M74.5,146.2l-0.3,0c-0.2,0-0.5-0.2-0.5-0.4l-0.2-1.9c0-0.2,0.2-0.5,0.4-0.5l0.3,0c0.2,0,0.5,0.2,0.5,0.4
					l0.2,1.9C74.9,146,74.7,146.2,74.5,146.2z"/>
			</g>
		</g>
		<g class="st25">
			<g>
				<path class="st1" d="M135,122.9c-1.6,0.5-1.7,2-1.7,2l1.6,0.1l0.4-0.4L135,122.9z"/>
			</g>
		</g>
		<g class="st25">
			<g>
				<path class="st1" d="M137.2,127.3c1.3-1.1,0.9-2.5,0.9-2.5l-1.5,0.4l-0.2,0.5L137.2,127.3z"/>
			</g>
		</g>
	</g>
	<g id="Layer_4">
		<g>
			<g>
				<path class="st30" d="M73,48.4c0,0-3-11.8-3.5-17.8s-1.2-14,5.6-16.7c6.7-2.7,4.7,5.6,4.7,5.6S74.4,23,73.3,32
					C72.8,36.8,73,48.4,73,48.4z"/>
			</g>
		</g>
		<g>
			<g>
				<path class="st30" d="M117.8,48.2c0,0,3.3-11.7,3.8-17.6c0.5-6,1.2-14-5.6-16.7s-4.7,5.6-4.7,5.6s5.3,3.6,6.4,12.6
					C118.4,36.8,117.8,48.2,117.8,48.2z"/>
			</g>
		</g>
		<g>
			<g>
				<path class="st30" d="M112.3,22.3c0,0-8.2,1.3-13.7-1.3c-1.6-0.8-9.4,2.6-13,1.9c-6.9-1.3-9.9-6.9-10-7.5
					c-0.4-1.7-2-4.1,2.9-7.8c6.9-5.2,15.4-3.9,16.8-5.4c1.4-1.5,2.8-2.4,5.6-2.2c7.4,0.7,7.7,5.1,11.9,5.7c5.4,0.8,7.2,3,7.6,7.5
					C121,21.9,112.3,22.3,112.3,22.3z"/>
			</g>
		</g>
		<g>
			<g>
				<path class="st31" d="M96.7,1.1c0,0-2.3,1.7-8.1,8.4c-5.8,6.8-8.8,6.3-9.5,6.5c0,0,5,0.9,10.3-6.1C94.7,2.9,96.7,1.1,96.7,1.1z"
					/>
			</g>
		</g>
		<g>
			<g>
				<path class="st31" d="M105.8,22.1c0,0,9.7,1.1,13.9-3.9c0,0-0.9,5.3-13.7,4L105.8,22.1z"/>
			</g>
		</g>
		<g>
			<g>
				<path class="st31" d="M89.9,22.2c-11.4,1.6-14.7-7.8-14.6-7.6c1.8,5.7,6.3,7.9,9.7,8.8c1,0.3,2,0.4,3,0.5c0.5,0,0.9,0,0.9,0
					s0,0,0,0c10.9,0.1,19.7-11.4,19.7-11.4C101.1,18.8,94.5,21.3,89.9,22.2z"/>
			</g>
		</g>
	</g>
	<g id="Layer_5">
		<g>
			<g>
				<defs>
					<path id="SVGID_1_" d="M90.6,39.8c1.9,1.9,1.9,4.9,0,6.8c-1.9,1.9-4.9,1.9-6.8,0c-1.9-1.9-1.9-4.9,0-6.8
						C85.6,37.9,88.7,37.9,90.6,39.8z"/>
				</defs>
				<clipPath id="SVGID_2_">
					<use xlink:href="#SVGID_1_"  style="overflow:visible;"/>
				</clipPath>
				<polygon class="st32" points="88.7,48.5 92.4,44.7 92.4,48.5 				"/>
				<polygon class="st32" points="83.8,48.5 81.9,46.5 81.9,41.7 85.6,37.9 90.5,37.9 92.4,39.9 92.4,44.7 88.7,48.5 				"/>
				<polygon class="st32" points="85.6,37.9 81.9,41.7 81.9,37.9 				"/>
			</g>
		</g>
		<g>
			<g>
				<defs>
					<circle id="SVGID_3_" cx="104.4" cy="43.5" r="4.8"/>
				</defs>
				<clipPath id="SVGID_4_">
					<use xlink:href="#SVGID_3_"  style="overflow:visible;"/>
				</clipPath>
				<polygon class="st33" points="105.9,48.8 109.7,45.1 109.7,48.8 				"/>
				<polygon class="st33" points="101,48.8 99.1,46.9 99.1,42 102.8,38.3 107.7,38.3 109.7,40.2 109.7,45.1 105.9,48.8 				"/>
				<polygon class="st33" points="102.8,38.3 99.1,42 99.1,38.3 				"/>
			</g>
		</g>
		<g>
			<g>
				<path class="st30" d="M109.3,36.5c-1.4-1-3-1.4-4.7-1.1c-0.7,0.1-1.3-0.6-1.1-1.3l0,0c0.1-0.4,0.3-0.6,0.7-0.8
					c2.4-0.7,4.7-0.3,6.5,1.5c0.2,0.2,0.3,0.6,0.2,0.9l0,0.1C110.8,36.6,109.9,36.9,109.3,36.5z"/>
			</g>
		</g>
		<g>
			<g>
				<g>
					<ellipse class="st34" cx="104.4" cy="43.5" rx="1.2" ry="1.6"/>
				</g>
			</g>
			<g>
				<g>
					<path class="st34" d="M87.1,41.8c-0.7,0-1.2,0.7-1.2,1.6c0,0.9,0.5,1.6,1.2,1.6s1.2-0.7,1.2-1.6C88.4,42.5,87.8,41.8,87.1,41.8
						z"/>
				</g>
			</g>
		</g>
		<g>
			<g>
				<path class="st35" d="M109.2,41.9c-0.7-2.1-2.6-3.6-4.9-3.6c-2.6,0-4.7,1.9-5.1,4.4c0,0,0,0,0,0c-0.9-1-2.2-1.7-3.7-1.7
					c-1.3,0-2.5,0.5-3.4,1.4c-0.4-2.4-2.5-4.2-5.1-4.2c-2.3,0-4.2,1.5-4.9,3.6c-8.6-3-10.7-3.4-11.2-3.3c-0.2,0-0.3,0.3-0.3,0.4
					l0.4,0.2c0,0,0.1-0.1,0.1-0.1c0.7-0.1,6.1,1.6,10.9,3.4C82,42.6,82,43,82,43.4c0,2.8,2.3,5.2,5.2,5.2c1.9,0,3.6-1.1,4.5-2.6
					c0.2,0,0.3-0.1,0.4-0.1c0.1-0.1,0.3-0.2,0.4-0.3c0.2-0.2,0.4-0.6,0.4-0.9c0.1-0.8-0.1-1.4-0.3-1.7c0.8-0.8,1.9-1.3,3.1-1.3
					c1.3,0,2.5,0.6,3.3,1.5c-0.2,0.3-0.3,0.9-0.2,1.6c0,0.3,0.2,0.6,0.4,0.9c0.1,0.1,0.3,0.2,0.4,0.3c0.1,0.1,0.3,0.1,0.4,0.1
					c0.9,1.5,2.5,2.6,4.5,2.6c2.8,0,5.2-2.3,5.2-5.2c0-0.4,0-0.7-0.1-1.1c4.9-1.7,10.2-3.5,10.8-3.4c0,0,0.5-0.2,0.5-0.2
					C120.6,38.5,120.4,38,109.2,41.9z M87.1,48c-2.5,0-4.6-2.1-4.6-4.6c0-2.5,2.1-4.6,4.6-4.6c2.5,0,4.6,2.1,4.6,4.6
					C91.8,45.9,89.7,48,87.1,48z M92.3,44.9c-0.1,0.1-0.1,0.2-0.2,0.3c0,0-0.1,0.1-0.1,0.1c0.2-0.5,0.3-1.1,0.4-1.7
					c0,0.1,0.1,0.2,0.1,0.3C92.4,44.2,92.4,44.5,92.3,44.9z M99.4,45.3c-0.1-0.1-0.2-0.2-0.2-0.3c-0.1-0.3-0.2-0.7-0.1-1
					c0-0.1,0.1-0.2,0.1-0.3c0,0.6,0.1,1.2,0.4,1.7C99.5,45.3,99.5,45.3,99.4,45.3z M104.4,48.1c-2.5,0-4.6-2.1-4.6-4.6
					c0-2.5,2.1-4.6,4.6-4.6c2.5,0,4.6,2.1,4.6,4.6C109,46,106.9,48.1,104.4,48.1z"/>
			</g>
		</g>
		<g>
			<g>
				<path class="st30" d="M82.2,36.3c1.4-1,3-1.4,4.7-1.1c0.7,0.1,1.3-0.6,1.1-1.3l0,0c-0.1-0.4-0.3-0.6-0.7-0.8
					c-2.4-0.7-4.7-0.3-6.5,1.5c-0.2,0.2-0.3,0.6-0.2,0.9l0,0.1C80.8,36.4,81.6,36.8,82.2,36.3z"/>
			</g>
		</g>
	</g>
	<g id="Layer_16">
		<g>
			<g>
				<path class="st20" d="M59.6,139.8c0,0-1.3-27.4,7.9-30.9c2.1-0.8,4.1-0.3,5.5,0.4c4.9,2.6,6.1,11.9,6.5,16.2
					c0.5,5.5,1.2,13.5,0.3,15.8c0,0,0.3-12.7-1.8-22c-2.1-9.3-6.2-10.3-8.7-10.2c-2.6,0.1-5.6,3-7.2,8.6
					C60.4,123.4,59.6,139.8,59.6,139.8z"/>
			</g>
		</g>
		<g>
			<g>
				<path class="st20" d="M58.3,141.9c0-0.1,0.6,2.4,3.1,3c2.5,0.6,3.7-0.8,3.7-0.8s-0.2,1.6,0.1,2
					C65.2,146.1,58.5,146.8,58.3,141.9z"/>
			</g>
		</g>
		<g>
			<g>
				<path class="st20" d="M81.4,140c0-0.1,0.1,1.1-0.4,2.1c-0.9,1.7-1.6,1.8-2.5,2.3c-2.2,1.2-3-0.4-3-0.4s0.3,1.5,0.1,1.9
					C75.6,145.9,81.9,145.7,81.4,140z"/>
			</g>
		</g>
		<g>
			<g>
				<polygon class="st20" points="68.6,92.9 70,92.6 69.9,93.3 68.6,93.6 				"/>
			</g>
		</g>
	</g>
</g>
</svg>
