<svg width="253" height="135" viewBox="0 0 253 135" fill="none" xmlns="http://www.w3.org/2000/svg">
<path d="M246.739 65.5782H214.991C213.853 65.626 212.749 65.9858 211.801 66.6182C210.853 67.2506 210.096 68.1314 209.614 69.1645L205.518 79.1549L183.755 24.3358C183.344 23.2518 182.605 22.3232 181.641 21.6802C180.677 21.0371 179.536 20.7117 178.378 20.7495C177.24 20.7974 176.136 21.1571 175.188 21.7895C174.24 22.4219 173.484 23.3027 173.002 24.3358L156.615 65.5782H134.084C139.211 51.8677 139.211 36.7655 134.084 23.055C132.042 17.9464 128.857 13.3737 124.774 9.68811C120.691 6.00248 115.818 3.30182 110.529 1.79341C106.544 0.589876 102.402 -0.014441 98.2397 0.000261953C92.492 -0.0063197 86.8295 1.39011 81.7432 4.06845C76.6569 6.74679 72.3005 10.6262 69.0518 15.3701C65.7721 10.6573 61.4091 6.80135 56.3298 4.1267C51.2506 1.45206 45.6037 0.0369019 39.864 0.000261953C35.7013 -0.014441 31.5595 0.589876 27.5744 1.79341C22.2857 3.30182 17.4128 6.00248 13.3296 9.68811C9.24641 13.3737 6.06147 17.9464 4.01925 23.055C-2.3816 38.1687 -1.10143 57.6371 7.60372 74.0316C21.6856 101.185 63.9312 132.693 65.7234 133.974C66.7048 134.642 67.8646 135 69.0518 135C70.2391 135 71.3989 134.642 72.3803 133.974C74.1725 132.693 113.09 103.49 128.708 77.1056H160.712C161.85 77.0578 162.954 76.6981 163.902 76.0656C164.85 75.4332 165.607 74.5524 166.089 73.5193L178.634 42.0111L200.397 96.5741C200.808 97.6581 201.547 98.5867 202.511 99.2297C203.475 99.8728 204.616 100.198 205.774 100.16C206.912 100.113 208.016 99.7528 208.964 99.1204C209.912 98.488 210.669 97.6072 211.151 96.5741L219.088 76.8494H246.995C248.485 76.8361 249.91 76.238 250.964 75.184C252.017 74.13 252.615 72.7044 252.628 71.2138C252.556 69.6982 251.905 68.2683 250.809 67.2194C249.713 66.1706 248.256 65.5831 246.739 65.5782ZM68.7958 121.934C58.5545 113.993 28.3425 89.1453 17.589 68.6522C10.6761 55.3317 9.39596 39.1933 14.5166 27.4098C15.9222 23.8832 18.1013 20.7174 20.893 18.1459C23.6848 15.5744 27.018 13.6628 30.6468 12.5523C33.6289 11.6257 36.7423 11.193 39.864 11.2715C55.4821 11.2715 62.651 25.8728 63.6751 28.6906C64.1571 29.7237 64.9135 30.6045 65.8616 31.2369C66.8098 31.8694 67.9133 32.2291 69.0518 32.2769C70.2029 32.282 71.3294 31.9435 72.2872 31.3047C73.245 30.6658 73.9905 29.7557 74.4286 28.6906C75.7087 25.8728 82.6216 11.2715 98.2397 11.2715C101.35 11.3541 104.442 11.7837 107.457 12.5523C111.106 13.6216 114.46 15.5183 117.257 18.0951C120.055 20.6719 122.221 23.8594 123.587 27.4098C128.708 39.1933 127.428 55.3317 120.515 68.6522C109.505 89.1453 79.0372 113.993 68.7958 121.934Z" fill="#ffffff"/>
<path d="M68.796 121.935C58.5546 113.993 28.3426 89.1456 17.5892 68.6525C10.6763 55.3319 9.39612 39.1936 14.5168 27.4101C15.9224 23.8835 18.1014 20.7176 20.8932 18.1461C23.685 15.5746 27.0182 13.6631 30.6469 12.5526C33.629 11.6259 36.7425 11.1933 39.8641 11.2717C55.4822 11.2717 62.6512 25.8731 63.6753 28.6909C64.1573 29.724 64.9136 30.6048 65.8618 31.2372C66.8099 31.8696 67.9135 32.2294 69.052 32.2772C70.2031 32.2823 71.3296 31.9438 72.2873 31.3049C73.2451 30.6661 73.9907 29.7559 74.4287 28.6909C75.7089 25.8731 82.6218 11.2717 98.2399 11.2717C101.35 11.3544 104.442 11.784 107.457 12.5526C111.106 13.6218 114.46 15.5186 117.258 18.0954C120.055 20.6722 122.221 23.8596 123.587 27.4101C128.708 39.1936 127.428 55.3319 120.515 68.6525C109.505 89.1456 79.0373 113.993 68.796 121.935Z" fill="#FA759E"/>
</svg>
