<?xml version="1.0" encoding="utf-8"?>
<!-- Generator: Adobe Illustrator 24.0.0, SVG Export Plug-In . SVG Version: 6.00 Build 0)  -->
<svg version="1.1" id="OBJECTS" xmlns="http://www.w3.org/2000/svg" xmlns:xlink="http://www.w3.org/1999/xlink" x="0px" y="0px"
	 viewBox="0 0 215.9 391" style="enable-background:new 0 0 215.9 391;" xml:space="preserve">
<style type="text/css">
	.st0{fill:#8D9DAA;}
	.st1{fill:#FFC1AC;}
	.st2{fill:#5EBFC5;}
	.st3{fill:#F79E8F;}
	.st4{fill:none;stroke:#B8C4CC;stroke-width:7.1303;stroke-linecap:round;stroke-miterlimit:10;}
	.st5{fill:#42ADAD;}
	.st6{fill:none;stroke:#BECAD3;stroke-width:7.1303;stroke-linecap:round;stroke-miterlimit:10;}
	.st7{fill:#9FACB9;}
	.st8{fill:#3B4B63;}
	.st9{fill:none;stroke:#CED9E0;stroke-width:7.1303;stroke-linecap:round;stroke-miterlimit:10;}
	.st10{fill:none;stroke:#3B4B63;stroke-width:0.843;stroke-miterlimit:10;}
	.st11{fill:none;stroke:#3B4B63;stroke-width:1.0186;stroke-linecap:round;stroke-miterlimit:10;}
</style>
<path class="st0" d="M120.3,35c0,0-5.2-7.5-15.6-4.2c-9.4,2.9-8.3,14.7-3.1,18.5C106.9,53.2,120.3,35,120.3,35z"/>
<path class="st1" d="M72.9,312.7c0,0-19.6,15.4-22.7,18.3c-3.1,2.9,5.4,15.9,2,20.1c-0.5,0.7-2.7,5.2-11.4-4.8
	c0,0-5.3-11.2-4.6-15.5c0.8-4.3,7.4-7,7.4-7l15.6-16.3L72.9,312.7z"/>
<path class="st2" d="M45.7,339.7c4,3.7,4.9,1.3,5.1-0.1c1.4,4.4,3,9.2,1.1,11.5c-0.5,0.7-2.7,5.2-11.4-4.8c0,0-5.3-11.2-4.6-15.5
	c0.8-4.3,7.4-7,7.4-7S40.4,334.9,45.7,339.7z"/>
<path class="st3" d="M123.6,123c0,0,7.5,7.6,18.9,15.9c0,0,8.8-1.6,13.5,0.1c4.6,1.7,7.4,9.3,6.8,11c-0.6,1.8-7.4,1.8-8.5,1.5
	c-1.1-0.3-20.9-7.3-37.8-13.4C116.4,138.2,119.6,129.1,123.6,123z"/>
<path class="st4" d="M166.2,147.9c0,0-24.1,18.3-31.8,188.3"/>
<path class="st3" d="M129.8,324.9c0,0-1.7,6.1-3.1,10.1s12.5,11.5,11.6,16.8c-0.1,0.8,0.2,5.8-12.3,1.1c0,0-10.3-7.4-11.6-11.5
	c-1.4-4.1,3.1-9.6,3.1-9.6l3.7-10.3L129.8,324.9z"/>
<path class="st2" d="M122.7,87.4c0,0,12.2,12.3,11.8,24.5c-0.5,17-1.1,36-1.1,36s18.3,33.1,19.4,93c0.4,26.4-16.3,81.1-18.8,84
	c-2.5,2.8-75.6-10.9-82.9-13s2.4-94.5,12.2-121.2s18.6-45.1,18.6-45.1s-10.5-6.3-10.5-15.8s19.8-41.2,27-46.9
	c4.3-3.4,12.4-3.7,12.4-3.7L122.7,87.4z"/>
<path class="st5" d="M79.5,150.9c1.5-3.4,2.5-5.3,2.5-5.3s-10.1-6-10.5-15.2c2.3,7.6,11.6,12.3,11.6,12.3l0.3-0.8
	c0,0-1.7,7.5-1.9,8.4C81.5,150.5,80.7,150.7,79.5,150.9z"/>
<path class="st5" d="M63.4,190.7c9.9-26.7,18.5-45.1,18.5-45.1l1.1-3h11.3l11.1,3.8l7,2.8c0,0-19.7,10.6-20.3,11.1
	c-0.5,0.5-10.6,7.4-10.6,47.1c3.1,41.7,14.3,93.4,48.1,117.5c0.2,0.1,0.3,0.2,0.5,0.3c-15.4-0.7-72.7-11.5-79.1-13.3
	C43.9,309.8,53.5,217.4,63.4,190.7z"/>
<path class="st6" d="M62.2,355.4C59.5,183,91.7,155.2,91.7,155.2"/>
<g>
	<path class="st7" d="M142.1,66.9c0,0,9.1-5.8,6.4-15.9c-2.8-10-3.7-10.5-6.4-13.5c-3.4-3.9-15-9.8-26.2-5.4
		C104.6,36.5,96.3,46.6,99,58c2.7,11.3,11.7,14.5,11.7,14.5l13-11.3L142.1,66.9z"/>
	<g>
		<path class="st3" d="M124.4,74.6c0-0.6-3.8,13.4-3.8,13.4c-2.3-0.4-3.9-1-5.2-1.7c-2.7-1.4-4.2-4.2-4.3-7.1l-0.3-15.5l9.6-3.1
			l7.2,7.5L124.4,74.6z"/>
		<path class="st1" d="M134.2,43.2c0,0,3.1,9.4,8.4,13.4c0.1,2.7,0,5.9-0.5,9.6c-1.7,12.7-8.3,19.2-14,17.8s-15.5-6.6-17.6-17.3
			c0,0-7.3,0.4-7.5-7.3c-0.3-7.7,8.9-5,7.9,2C128.9,57,134.2,43.2,134.2,43.2z"/>
		<path class="st3" d="M135.3,60.3c0,0,3.4,8.1,2.5,9.5c-0.9,1.4-4.1,1.8-5.4,1.7s2.7-1,3.3-2.4C136.1,67.8,133.4,57.7,135.3,60.3z"
			/>
		<path class="st8" d="M125.7,61.8c0,1,0.8,0,2,0c1,0,2,1,2,0s-0.8-1.9-2-1.9C126.5,59.9,125.7,60.7,125.7,61.8z"/>
		<path class="st8" d="M139.3,61.8c0,0.8,0.7,0,1.5,0s1.5,0.8,1.5,0s-0.7-1.5-1.5-1.5C140,60.2,139.3,60.9,139.3,61.8z"/>
		<g>
			<path class="st8" d="M144.4,57.8c-0.2-0.7-0.7-1.3-1.3-1.7c-0.6-0.4-1.4-0.7-2.3-0.7c-0.9,0-1.6,0.3-2.3,0.8
				c-0.3,0.2-0.5,0.6-0.7,0.8c-0.2,0.3-0.3,0.7-0.4,1c0.4-0.1,0.7-0.3,1-0.4c0.3-0.1,0.6-0.3,0.9-0.3c0.5-0.2,1.1-0.3,1.6-0.3
				C141.8,57,143,57.4,144.4,57.8z"/>
		</g>
		<g>
			<path class="st8" d="M123.7,57.8c1.4-0.5,2.6-0.8,3.6-0.8c0.5,0,1,0.1,1.6,0.3c0.3,0.1,0.5,0.2,0.9,0.3c0.3,0.1,0.6,0.3,1,0.4
				c-0.1-0.4-0.2-0.7-0.4-1c-0.2-0.3-0.4-0.6-0.7-0.8c-0.6-0.5-1.4-0.8-2.3-0.8s-1.6,0.3-2.3,0.7C124.4,56.5,123.9,57.1,123.7,57.8z
				"/>
		</g>
	</g>
	<g>
		<path class="st3" d="M135.2,75.8c-2-0.1-3.8-0.4-5.7-0.9c-0.9-0.3-1.7-0.6-2.6-1c-0.8-0.4-1.6-0.9-2.6-1.4
			c0.5,0.8,1.2,1.6,2.1,2.1c0.8,0.6,1.7,1,2.8,1.3c1,0.3,2,0.4,3,0.4C133.2,76.3,134.2,76.2,135.2,75.8z"/>
	</g>
	<g>
		<path class="st3" d="M132,75.9c-0.2,0.6-0.3,1.1-0.6,1.5c-0.1,0.2-0.3,0.4-0.5,0.6c-0.2,0.2-0.4,0.4-0.6,0.6
			c0.3,0,0.6-0.1,0.9-0.3c0.3-0.2,0.5-0.4,0.7-0.7C132.1,77.1,132.2,76.5,132,75.9z"/>
	</g>
	<g>
		<path class="st3" d="M132,73.3c-0.3,0.4-0.4,0.8-0.6,1.2c-0.1,0.2-0.2,0.4-0.2,0.6c-0.1,0.2-0.2,0.4-0.2,0.6
			c0.4-0.2,0.7-0.6,0.9-1C132,74.2,132.1,73.8,132,73.3z"/>
	</g>
	<g>
		<path class="st3" d="M127.1,74.2c-0.3,0.4-0.4,0.8-0.6,1.2c-0.1,0.2-0.2,0.4-0.2,0.6c-0.1,0.2-0.2,0.4-0.2,0.6
			c0.4-0.2,0.7-0.6,0.9-1C127.1,75.1,127.3,74.7,127.1,74.2z"/>
	</g>
	<g>
		<path class="st3" d="M131.1,64.1c-0.7,1.7-1.7,2.9-3.1,3.8c-0.7,0.4-1.4,0.8-2.3,1.1l-1.2,0.4c-0.4,0.1-0.8,0.2-1.3,0.4
			c0.4,0.1,0.9,0.1,1.3,0.2c0.4,0,0.9,0,1.3-0.1c0.9-0.2,1.9-0.5,2.7-1c0.8-0.5,1.5-1.2,2-2.1S131.3,65,131.1,64.1z"/>
	</g>
	<g>
		<path class="st3" d="M130.1,49.7c0.9-0.1,2.2-0.2,3.4-0.2c1.3,0,2.7,0.1,3.6,0.2h0.1c0.1,0.2,0.2,0.4,0.3,0.6
			c-0.1,0-0.3,0-0.4,0.1c-1,0.1-2.4,0.2-3.6,0.2c-1.3,0-2.7-0.1-3.6-0.2c-0.1,0-0.2,0-0.3,0C129.7,50.1,129.9,49.9,130.1,49.7z"/>
		<path class="st3" d="M138.8,52.7c0,0-0.6-0.2-1.6-0.3c-1-0.1-2.4-0.2-3.6-0.2c-1.3,0-2.7,0.1-3.6,0.2c-1,0.1-1.6,0.3-1.6,0.3
			s0.5,0.2,1.5,0.3c1,0.1,2.4,0.2,3.6,0.2c1.3,0,2.7-0.1,3.6-0.2C138.1,52.8,138.8,52.7,138.8,52.7z"/>
	</g>
	<g>
		<path class="st3" d="M138.6,65.4c-0.2,0.8,0,1.6,0.4,2.2c0.4,0.7,0.9,1.3,1.7,1.5c-0.3-0.7-0.7-1.3-1-1.9
			C139.3,66.7,139,66.1,138.6,65.4z"/>
	</g>
	<path class="st3" d="M109.2,60.1c0,0-0.3-3.1-3.1-2.9s-1.3,5.4,1.6,6.6c0,0-1.4-2.1-1.4-3.6C106.3,58.7,108.5,59.5,109.2,60.1z"/>
</g>
<path class="st9" d="M91.7,155.2l74.5-7.3c0,0,29.3,2,10.8,207.5"/>
<path class="st1" d="M90.2,127.5c0,0,7.5,7.6,18.9,15.9c0,0,8.8-1.6,13.5,0.1c4.6,1.7,7.4,9.3,6.8,11c-0.6,1.8-7.4,1.8-8.5,1.5
	s-20.9-7.3-37.8-13.4C83,142.6,86.3,133.6,90.2,127.5z"/>
<path class="st9" d="M91.7,155.2c0,0,29.3,2,10.8,207.5"/>
<path class="st3" d="M161.5,144.8c1.1,2.3,1.6,4.5,1.3,5.3c-0.6,1.8-7.4,1.8-8.5,1.5c-0.6-0.1-6.2-2.1-13.8-4.8L161.5,144.8z"/>
<path class="st5" d="M127.1,344.7c5.3,1.3,4.9-1.2,4.5-2.5c3.4,3.2,7.1,6.7,6.6,9.6c-0.1,0.8,0.2,5.8-12.3,1.1
	c0,0-10.3-7.4-11.6-11.5c-1.4-4.1,3.1-9.6,3.1-9.6S120.2,342.9,127.1,344.7z"/>
<path class="st10" d="M137.5,61.1c0,1.8,1.4,3.2,3.3,3.2c1.9,0,3.3-1.4,3.3-3.2s-1.4-3.2-3.3-3.2C139,57.9,137.5,59.3,137.5,61.1z"
	/>
<path class="st10" d="M124.4,61.1c0,1.8,1.4,3.2,3.3,3.2s3.3-1.4,3.3-3.2s-1.4-3.2-3.3-3.2S124.4,59.3,124.4,61.1z"/>
<path class="st10" d="M137.5,61.1c0,0-3.2-2.3-6.6,0"/>
<line class="st11" x1="124.2" y1="61.1" x2="110.5" y2="57.6"/>
</svg>
